<svg width="80" height="80" viewBox="0 0 80 80" fill="none" xmlns="http://www.w3.org/2000/svg">
    <path d="M67.7234 13.8521C62.6244 11.5125 57.1566 9.78875 51.4397 8.8015C51.3355 8.78245 51.2315 8.83007 51.1779 8.9253C50.4747 10.176 49.6958 11.8077 49.1503 13.0902C43.0014 12.1696 36.8839 12.1696 30.8611 13.0902C30.3155 11.7792 29.5083 10.176 28.8019 8.9253C28.7483 8.83324 28.6443 8.78563 28.5402 8.8015C22.8264 9.78559 17.3585 11.5093 12.2564 13.8521C12.2123 13.8711 12.1744 13.9029 12.1493 13.9441C1.77797 29.4387 -1.06317 44.5524 0.3306 59.4787C0.336907 59.5517 0.377899 59.6215 0.43466 59.6659C7.27736 64.6911 13.9057 67.7418 20.4109 69.7639C20.515 69.7956 20.6254 69.7575 20.6916 69.6718C22.2304 67.5704 23.6021 65.3546 24.7783 63.0245C24.8477 62.888 24.7814 62.7261 24.6395 62.6721C22.4638 61.8468 20.392 60.8405 18.3991 59.6977C18.2415 59.6057 18.2288 59.3802 18.3739 59.2722C18.7932 58.958 19.2127 58.631 19.6132 58.3009C19.6856 58.2406 19.7866 58.2279 19.8718 58.2659C32.9643 64.2435 47.1385 64.2435 60.0765 58.2659C60.1617 58.2247 60.2626 58.2374 60.3383 58.2977C60.7388 58.6278 61.1582 58.958 61.5807 59.2722C61.7257 59.3802 61.7163 59.6057 61.5586 59.6977C59.5657 60.8627 57.494 61.8468 55.315 62.669C55.1732 62.723 55.1101 62.888 55.1795 63.0245C56.3808 65.3513 57.7526 67.5671 59.263 69.6686C59.3261 69.7575 59.4395 69.7956 59.5437 69.7639C66.0804 67.7418 72.7087 64.6911 79.5514 59.6659C79.6114 59.6215 79.6492 59.5548 79.6555 59.4818C81.3236 42.2254 76.8616 27.2356 67.8274 13.9473C67.8053 13.9029 67.7675 13.8711 67.7234 13.8521ZM26.7334 50.3901C22.7917 50.3901 19.5438 46.7713 19.5438 42.327C19.5438 37.8827 22.7287 34.2639 26.7334 34.2639C30.7696 34.2639 33.986 37.9145 33.9229 42.327C33.9229 46.7713 30.738 50.3901 26.7334 50.3901ZM53.3158 50.3901C49.3742 50.3901 46.1263 46.7713 46.1263 42.327C46.1263 37.8827 49.3111 34.2639 53.3158 34.2639C57.3521 34.2639 60.5685 37.9145 60.5055 42.327C60.5055 46.7713 57.3521 50.3901 53.3158 50.3901Z" fill="#5865F2"/>
</svg>
