<svg width="80" height="80" viewBox="0 0 80 80" fill="none" xmlns="http://www.w3.org/2000/svg">
    <path d="M40 80C62.0914 80 80 62.0914 80 40C80 17.9086 62.0914 0 40 0C17.9086 0 0 17.9086 0 40C0 62.0914 17.9086 80 40 80Z" fill="#BD0909"/>
    <path d="M59.9987 53.3335C59.9987 55.1735 58.5073 56.6665 56.6647 56.6665H23.3307C21.4915 56.6663 19.9987 55.1734 19.9987 53.3335L20.025 33.3335C20.025 33.3344 36.7467 42.2444 39.9977 42.2446C43.5614 42.2446 59.9723 33.3335 59.9723 33.3335L59.9987 53.3335ZM56.6647 23.3335C58.5072 23.3335 59.9985 24.8967 59.9987 26.8228L59.9723 28.5679C59.9723 28.5679 43.4049 38.3335 39.9977 38.3335C36.7465 38.3332 19.9987 28.3774 19.9987 28.3774V26.8228C19.9988 24.8968 21.49 23.3337 23.3307 23.3335H56.6647Z" fill="white"/>
</svg>
