<svg width="522" height="1043" viewBox="0 0 522 1043" fill="none" xmlns="http://www.w3.org/2000/svg">
    <mask id="mask0_17_7" style="mask-type:alpha" maskUnits="userSpaceOnUse" x="-521" y="0" width="1043" height="1043">
        <rect x="-364.717" width="900" height="900" transform="rotate(10 -364.717 0)" fill="#D9D9D9"/>
    </mask>
    <g mask="url(#mask0_17_7)">
        <path d="M-166.371 872.701L-160.305 751.919C-167.764 747.431 -174.653 742.408 -180.971 736.851C-187.29 731.295 -193.4 725.458 -199.303 719.34L-317.31 746.13L-387.937 552.804L-280.144 497.557C-280 493.14 -279.575 488.932 -278.869 484.931L-274.474 460.003C-273.768 456.002 -272.728 451.902 -271.353 447.702L-353.75 358.92L-221.261 201.408L-119.533 266.944C-111.894 263.213 -104.002 259.845 -95.8562 256.839C-87.7104 253.833 -79.6732 251.442 -71.7445 249.667L-36.1346 134.095L166.982 169.91L160.916 290.691C168.375 295.18 175.264 300.202 181.583 305.759C187.901 311.316 194.012 317.153 199.914 323.271L317.921 296.481L388.549 489.807L280.755 545.053C280.611 549.47 280.186 553.679 279.481 557.68L275.085 582.608C274.38 586.609 273.032 590.655 271.041 594.746L353.438 683.528L220.949 841.04L120.144 775.667C112.506 779.397 104.613 782.765 96.4675 785.771C88.3218 788.778 80.2845 791.168 72.3558 792.943L36.7459 908.516L-166.371 872.701ZM-88.7191 810.236L-15.7817 823.097L14.4001 727.51C34.349 725.951 53.32 721.839 71.3131 715.175C89.3062 708.51 106.267 699.602 122.196 688.448L206.924 742.418L254.001 685.986L185.182 611.974C189.779 603.899 193.535 595.2 196.448 585.877C199.361 576.554 201.686 566.968 203.422 557.12C205.159 547.272 206.253 537.469 206.704 527.712C207.155 517.955 206.602 508.496 205.043 499.336L295.025 453.325L270.088 384.195L171.848 406.855C160.804 390.31 147.967 375.83 133.338 363.414C118.709 350.997 102.289 340.645 84.0765 332.356L89.3304 232.375L16.3931 219.514L-13.7888 315.1C-33.7377 316.66 -52.7087 320.772 -70.7018 327.436C-88.6949 334.1 -105.656 343.009 -121.585 354.162L-206.312 300.192L-253.39 356.625L-184.408 429.714C-189.114 438.403 -192.896 447.256 -195.755 456.272C-198.614 465.287 -200.966 475.027 -202.811 485.49C-204.547 495.338 -205.614 504.987 -206.011 514.437C-206.408 523.887 -205.882 533.499 -204.432 543.274L-294.414 589.286L-269.477 658.416L-171.237 635.756C-160.192 652.3 -147.355 666.781 -132.727 679.197C-118.098 691.613 -101.678 701.966 -83.4651 710.254L-88.7191 810.236ZM-20.6391 650.887C15.0602 657.182 47.7525 649.936 77.4379 629.15C107.123 608.364 125.113 580.121 131.408 544.422C137.703 508.723 130.457 476.031 109.671 446.345C88.8854 416.66 60.6428 398.67 24.9435 392.375C-11.3712 385.972 -44.2175 393.19 -73.5952 414.03C-102.973 434.871 -120.809 463.14 -127.104 498.84C-133.399 534.539 -126.307 567.204 -105.829 596.835C-85.3504 626.466 -56.9539 644.484 -20.6391 650.887Z" fill="#45ABFF"/>
    </g>
</svg>
