<svg width="120" height="120" viewBox="0 0 120 120" fill="none" xmlns="http://www.w3.org/2000/svg">
    <mask id="mask0_162_217" style="mask-type:alpha" maskUnits="userSpaceOnUse" x="0" y="0" width="120" height="120">
    <rect y="56.5685" width="120" height="120" transform="rotate(-45 0 56.5685)" fill="#D9D9D9"/>
</mask>
    <g mask="url(#mask0_162_217)">
        <path d="M65.9966 70.7107L56.5685 80.1388C53.3079 83.3994 49.3796 85.0296 44.7834 85.0296C40.1872 85.0296 36.2588 83.3994 32.9982 80.1388C29.7377 76.8783 28.1074 72.9499 28.1074 68.3537C28.1074 63.7575 29.7377 59.8291 32.9982 56.5686L42.4263 47.1405L47.1404 51.8545L37.7123 61.2826C35.7481 63.2468 34.766 65.6038 34.766 68.3537C34.766 71.1036 35.7481 73.4606 37.7123 75.4248C39.6765 77.389 42.0335 78.371 44.7834 78.371C47.5332 78.371 49.8902 77.389 51.8544 75.4248L61.2825 65.9967L65.9966 70.7107ZM49.4974 68.3537L44.7834 63.6397L63.6395 44.7835L68.3536 49.4975L49.4974 68.3537ZM70.7106 65.9967L65.9966 61.2826L75.4247 51.8545C77.3888 49.8904 78.3709 47.5333 78.3709 44.7835C78.3709 42.0336 77.3888 39.6766 75.4247 37.7124C73.4605 35.7482 71.1034 34.7661 68.3536 34.7661C65.6037 34.7661 63.2467 35.7482 61.2825 37.7124L51.8544 47.1405L47.1404 42.4265L56.5685 32.9984C59.829 29.7378 63.7574 28.1075 68.3536 28.1075C72.9498 28.1075 76.8781 29.7378 80.1387 32.9984C83.3992 36.2589 85.0295 40.1873 85.0295 44.7835C85.0295 49.3797 83.3992 53.308 80.1387 56.5686L70.7106 65.9967Z" fill="#BCBCBC"/>
    </g>
</svg>
