<svg width="250" height="250" viewBox="0 0 250 250" fill="none" xmlns="http://www.w3.org/2000/svg">
    <mask id="mask0_62_70" style="mask-type:alpha" maskUnits="userSpaceOnUse" x="0" y="0" width="250" height="250">
        <rect width="250" height="250" fill="#D9D9D9"/>
    </mask>
    <g mask="url(#mask0_62_70)">
        <path d="M52.9512 190.146C63.3171 182.22 74.9025 175.97 87.7073 171.396C100.512 166.823 113.927 164.537 127.951 164.537C141.976 164.537 155.39 166.823 168.195 171.396C181 175.97 192.585 182.22 202.951 190.146C210.065 181.813 215.604 172.362 219.567 161.793C223.531 151.224 225.512 139.943 225.512 127.951C225.512 100.919 216.01 77.9004 197.006 58.8964C178.002 39.8923 154.984 30.3902 127.951 30.3902C100.919 30.3902 77.9004 39.8923 58.8964 58.8964C39.8923 77.9004 30.3902 100.919 30.3902 127.951C30.3902 139.943 32.372 151.224 36.3354 161.793C40.2988 172.362 45.8374 181.813 52.9512 190.146ZM127.951 140.146C115.959 140.146 105.848 136.031 97.6159 127.799C89.3842 119.567 85.2683 109.455 85.2683 97.4634C85.2683 85.4716 89.3842 75.3598 97.6159 67.1281C105.848 58.8964 115.959 54.7805 127.951 54.7805C139.943 54.7805 150.055 58.8964 158.287 67.1281C166.518 75.3598 170.634 85.4716 170.634 97.4634C170.634 109.455 166.518 119.567 158.287 127.799C150.055 136.031 139.943 140.146 127.951 140.146ZM127.951 249.902C111.081 249.902 95.2277 246.701 80.3903 240.299C65.5529 233.896 52.6463 225.207 41.6707 214.232C30.6951 203.256 22.0061 190.35 15.6037 175.512C9.20122 160.675 6 144.821 6 127.951C6 111.081 9.20122 95.2277 15.6037 80.3903C22.0061 65.5529 30.6951 52.6463 41.6707 41.6707C52.6463 30.6951 65.5529 22.0061 80.3903 15.6037C95.2277 9.20122 111.081 6 127.951 6C144.821 6 160.675 9.20122 175.512 15.6037C190.35 22.0061 203.256 30.6951 214.232 41.6707C225.207 52.6463 233.896 65.5529 240.299 80.3903C246.701 95.2277 249.902 111.081 249.902 127.951C249.902 144.821 246.701 160.675 240.299 175.512C233.896 190.35 225.207 203.256 214.232 214.232C203.256 225.207 190.35 233.896 175.512 240.299C160.675 246.701 144.821 249.902 127.951 249.902ZM127.951 225.512C138.724 225.512 148.886 223.937 158.439 220.787C167.992 217.636 176.732 213.114 184.659 207.22C176.732 201.325 167.992 196.803 158.439 193.652C148.886 190.502 138.724 188.927 127.951 188.927C117.179 188.927 107.016 190.502 97.4634 193.652C87.9106 196.803 79.1707 201.325 71.2439 207.22C79.1707 213.114 87.9106 217.636 97.4634 220.787C107.016 223.937 117.179 225.512 127.951 225.512ZM127.951 115.756C133.236 115.756 137.606 114.028 141.061 110.573C144.516 107.118 146.244 102.748 146.244 97.4634C146.244 92.1789 144.516 87.809 141.061 84.3537C137.606 80.8984 133.236 79.1707 127.951 79.1707C122.667 79.1707 118.297 80.8984 114.841 84.3537C111.386 87.809 109.659 92.1789 109.659 97.4634C109.659 102.748 111.386 107.118 114.841 110.573C118.297 114.028 122.667 115.756 127.951 115.756Z" fill="white"/>
    </g>
</svg>
