<svg width="521" height="1043" viewBox="0 0 521 1043" fill="none" xmlns="http://www.w3.org/2000/svg">
    <mask id="mask0_17_8" style="mask-type:alpha" maskUnits="userSpaceOnUse" x="0" y="0" width="1043" height="1043">
        <rect y="156.283" width="900" height="900" transform="rotate(-10 0 156.283)" fill="#D9D9D9"/>
    </mask>
    <g mask="url(#mask0_17_8)">
        <path d="M484.865 908.516L449.256 792.943C440.711 791.277 432.52 788.913 424.682 785.853C416.844 782.792 409.106 779.397 401.467 775.667L299.739 841.202L167.25 683.691L249.647 594.909C248.272 590.709 247.232 586.608 246.526 582.608L242.131 557.68C241.425 553.679 241.001 549.47 240.856 545.053L133.063 489.807L203.69 296.48L321.697 323.271C327.6 317.153 333.864 311.288 340.49 305.677C347.117 300.067 353.852 295.071 360.695 290.691L354.629 169.91L557.746 134.095L593.356 249.667C601.9 251.334 610.091 253.697 617.929 256.758C625.767 259.818 633.506 263.213 641.144 266.944L742.872 201.408L875.362 358.919L792.964 447.701C794.339 451.901 795.38 456.002 796.085 460.003L800.481 484.931C801.186 488.931 801.303 493.195 800.832 497.72L908.625 552.966L837.998 746.293L720.914 719.34C715.012 725.457 708.747 731.322 702.121 736.933C695.495 742.544 688.76 747.539 681.916 751.919L687.982 872.701L484.865 908.516ZM536.47 823.259L609.407 810.398L605.077 710.254C623.289 701.966 639.71 691.613 654.338 679.197C668.967 666.78 681.858 652.608 693.011 636.679L791.088 658.416L816.025 589.285L726.044 543.274C727.602 534.114 728.155 524.656 727.704 514.898C727.253 505.141 726.159 495.338 724.422 485.49C722.686 475.642 720.361 466.056 717.448 456.733C714.535 447.41 710.779 438.711 706.183 430.637L775.001 356.625L727.924 300.192L643.359 355.086C627.321 343.317 610.306 334.1 592.313 327.436C574.32 320.771 555.349 316.66 535.4 315.1L506.142 219.351L433.204 232.212L437.535 332.356C419.323 340.645 402.902 350.997 388.273 363.413C373.645 375.83 360.754 390.002 349.6 405.931L251.523 384.194L226.586 453.325L316.405 498.413C314.956 508.188 314.429 517.801 314.826 527.25C315.223 536.7 316.344 546.656 318.189 557.12C319.926 566.968 322.223 576.4 325.082 585.415C327.941 594.431 331.723 603.284 336.429 611.974L267.61 685.986L314.688 742.418L399.253 687.525C415.29 699.294 432.305 708.51 450.298 715.175C468.291 721.839 487.262 725.951 507.211 727.51L536.47 823.259ZM545.944 650.236C581.643 643.941 609.885 625.951 630.671 596.265C651.457 566.58 658.703 533.887 652.408 498.188C646.114 462.489 628.123 434.246 598.438 413.46C568.753 392.674 536.06 385.429 500.361 391.724C464.046 398.127 435.65 416.144 415.171 445.775C394.693 475.406 387.601 508.072 393.896 543.771C400.191 579.47 418.027 607.74 447.405 628.58C476.783 649.42 509.629 656.639 545.944 650.236Z" fill="#FF8787"/>
    </g>
</svg>
