<svg width="479" height="80" viewBox="0 0 479 80" fill="none" xmlns="http://www.w3.org/2000/svg">
    <path d="M40 80C62.0914 80 80 62.0914 80 40C80 17.9086 62.0914 0 40 0C17.9086 0 0 17.9086 0 40C0 62.0914 17.9086 80 40 80Z" fill="#BD0909"/>
    <path d="M59.9987 53.3335C59.9987 55.1735 58.5073 56.6665 56.6647 56.6665H23.3307C21.4915 56.6663 19.9987 55.1734 19.9987 53.3335L20.025 33.3335C20.025 33.3344 36.7467 42.2444 39.9977 42.2446C43.5614 42.2446 59.9723 33.3335 59.9723 33.3335L59.9987 53.3335ZM56.6647 23.3335C58.5072 23.3335 59.9985 24.8967 59.9987 26.8228L59.9723 28.5679C59.9723 28.5679 43.4049 38.3335 39.9977 38.3335C36.7465 38.3332 19.9987 28.3774 19.9987 28.3774V26.8228C19.9988 24.8968 21.49 23.3337 23.3307 23.3335H56.6647Z" fill="white"/>
    <g clip-path="url(#clip0_48_237)">
        <path d="M207.094 0H138.906C137.339 0 135.837 0.622192 134.73 1.7297C133.622 2.8372 133 4.33931 133 5.90556V74.0944C133 75.6607 133.622 77.1628 134.73 78.2703C135.837 79.3778 137.339 80 138.906 80H207.094C208.661 80 210.163 79.3778 211.27 78.2703C212.378 77.1628 213 75.6607 213 74.0944V5.90556C213 4.33931 212.378 2.8372 211.27 1.7297C210.163 0.622192 208.661 0 207.094 0ZM156.844 68.15H144.817V29.9444H156.844V68.15ZM150.822 24.65C149.458 24.6423 148.126 24.2307 146.996 23.467C145.865 22.7033 144.986 21.6218 144.47 20.359C143.953 19.0962 143.822 17.7086 144.093 16.3715C144.365 15.0344 145.026 13.8076 145.994 12.8459C146.962 11.8843 148.193 11.2309 149.532 10.9682C150.87 10.7055 152.257 10.8453 153.517 11.37C154.776 11.8946 155.852 12.7806 156.608 13.916C157.365 15.0515 157.768 16.3856 157.767 17.75C157.78 18.6634 157.608 19.5701 157.263 20.416C156.918 21.2619 156.407 22.0297 155.759 22.6736C155.111 23.3174 154.339 23.8243 153.491 24.1638C152.643 24.5034 151.736 24.6687 150.822 24.65ZM201.178 68.1833H189.156V47.3111C189.156 41.1556 186.539 39.2556 183.161 39.2556C179.594 39.2556 176.094 41.9444 176.094 47.4667V68.1833H164.067V29.9722H175.633V35.2667H175.789C176.95 32.9167 181.017 28.9 187.222 28.9C193.933 28.9 201.183 32.8833 201.183 44.55L201.178 68.1833Z" fill="#0A66C2"/>
    </g>
    <path d="M333.723 13.8521C328.624 11.5125 323.157 9.78875 317.44 8.8015C317.336 8.78245 317.232 8.83007 317.178 8.9253C316.475 10.176 315.696 11.8077 315.15 13.0902C309.001 12.1696 302.884 12.1696 296.861 13.0902C296.315 11.7792 295.508 10.176 294.802 8.9253C294.748 8.83324 294.644 8.78563 294.54 8.8015C288.826 9.78559 283.359 11.5093 278.256 13.8521C278.212 13.8711 278.174 13.9029 278.149 13.9441C267.778 29.4387 264.937 44.5524 266.331 59.4787C266.337 59.5517 266.378 59.6215 266.435 59.6659C273.277 64.6911 279.906 67.7418 286.411 69.7639C286.515 69.7956 286.625 69.7575 286.692 69.6718C288.23 67.5704 289.602 65.3546 290.778 63.0245C290.848 62.888 290.781 62.7261 290.64 62.6721C288.464 61.8468 286.392 60.8405 284.399 59.6977C284.241 59.6057 284.229 59.3802 284.374 59.2722C284.793 58.958 285.213 58.631 285.613 58.3009C285.686 58.2406 285.787 58.2279 285.872 58.2659C298.964 64.2435 313.138 64.2435 326.077 58.2659C326.162 58.2247 326.263 58.2374 326.338 58.2977C326.739 58.6278 327.158 58.958 327.581 59.2722C327.726 59.3802 327.716 59.6057 327.559 59.6977C325.566 60.8627 323.494 61.8468 321.315 62.669C321.173 62.723 321.11 62.888 321.179 63.0245C322.381 65.3513 323.753 67.5671 325.263 69.6686C325.326 69.7575 325.44 69.7956 325.544 69.7639C332.08 67.7418 338.709 64.6911 345.551 59.6659C345.611 59.6215 345.649 59.5548 345.656 59.4818C347.324 42.2254 342.862 27.2356 333.827 13.9473C333.805 13.9029 333.768 13.8711 333.723 13.8521ZM292.733 50.3901C288.792 50.3901 285.544 46.7713 285.544 42.327C285.544 37.8827 288.729 34.2639 292.733 34.2639C296.77 34.2639 299.986 37.9145 299.923 42.327C299.923 46.7713 296.738 50.3901 292.733 50.3901ZM319.316 50.3901C315.374 50.3901 312.126 46.7713 312.126 42.327C312.126 37.8827 315.311 34.2639 319.316 34.2639C323.352 34.2639 326.568 37.9145 326.505 42.327C326.505 46.7713 323.352 50.3901 319.316 50.3901Z" fill="#5865F2"/>
    <path fill-rule="evenodd" clip-rule="evenodd" d="M439.033 0C416.896 0 399 18.0278 399 40.3306C399 58.1584 410.466 73.2492 426.374 78.5904C428.362 78.9919 429.091 77.7226 429.091 76.6548C429.091 75.7199 429.025 72.515 429.025 69.1758C417.889 71.58 415.57 64.3681 415.57 64.3681C413.78 59.694 411.129 58.4927 411.129 58.4927C407.484 56.0221 411.394 56.0221 411.394 56.0221C415.437 56.2892 417.559 60.1619 417.559 60.1619C421.137 66.3045 426.904 64.5689 429.224 63.5003C429.555 60.8961 430.616 59.0934 431.743 58.092C422.861 57.157 413.516 53.685 413.516 38.1934C413.516 33.7865 415.105 30.1809 417.624 27.3768C417.227 26.3754 415.835 22.2348 418.023 16.6929C418.023 16.6929 421.403 15.6243 429.024 20.8327C432.288 19.9499 435.653 19.5008 439.033 19.497C442.413 19.497 445.859 19.9649 449.041 20.8327C456.663 15.6243 460.044 16.6929 460.044 16.6929C462.232 22.2348 460.838 26.3754 460.441 27.3768C463.026 30.1809 464.551 33.7865 464.551 38.1934C464.551 53.685 455.206 57.0898 446.257 58.092C447.716 59.3605 448.975 61.7639 448.975 65.5702C448.975 70.9786 448.909 75.3192 448.909 76.654C448.909 77.7226 449.638 78.9919 451.626 78.5912C467.533 73.2484 479 58.1584 479 40.3306C479.065 18.0278 461.104 0 439.033 0Z" fill="white"/>
    <defs>
        <clipPath id="clip0_48_237">
            <rect width="80" height="80" fill="white" transform="translate(133)"/>
        </clipPath>
    </defs>
</svg>
