<svg width="121" height="121" viewBox="0 0 121 121" fill="none" xmlns="http://www.w3.org/2000/svg">
    <mask id="mask0_117_40" style="mask-type:alpha" maskUnits="userSpaceOnUse" x="0" y="0" width="121" height="121">
        <rect width="121" height="121" fill="#D9D9D9"/>
    </mask>
    <g mask="url(#mask0_117_40)">
        <path d="M60.5 110.917L15.125 85.7083V35.2916L60.5 10.0833L105.875 35.2916V85.7083L60.5 110.917ZM45.8792 46.6353C47.8118 44.6187 50.0385 43.0642 52.5594 41.9718C55.0802 40.8794 57.7271 40.3333 60.5 40.3333C63.2729 40.3333 65.9198 40.8794 68.4406 41.9718C70.9615 43.0642 73.1882 44.6187 75.1208 46.6353L90.2458 38.1905L60.5 21.6791L30.7542 38.1905L45.8792 46.6353ZM55.4583 96.5478V80.0364C50.9208 78.86 47.2656 76.4652 44.4927 72.852C41.7198 69.2388 40.3333 65.1214 40.3333 60.4999C40.3333 59.5756 40.3753 58.7143 40.4594 57.9161C40.5434 57.1178 40.7115 56.2985 40.9635 55.4583L25.2083 46.6353V79.7843L55.4583 96.5478ZM60.5 70.5833C63.2729 70.5833 65.6467 69.5959 67.6214 67.6213C69.596 65.6466 70.5833 63.2728 70.5833 60.4999C70.5833 57.727 69.596 55.3532 67.6214 53.3786C65.6467 51.4039 63.2729 50.4166 60.5 50.4166C57.7271 50.4166 55.3533 51.4039 53.3786 53.3786C51.404 55.3532 50.4167 57.727 50.4167 60.4999C50.4167 63.2728 51.404 65.6466 53.3786 67.6213C55.3533 69.5959 57.7271 70.5833 60.5 70.5833ZM65.5417 96.5478L95.7917 79.7843V46.6353L80.0365 55.4583C80.2885 56.2985 80.4566 57.1178 80.5406 57.9161C80.6246 58.7143 80.6667 59.5756 80.6667 60.4999C80.6667 65.1214 79.2802 69.2388 76.5073 72.852C73.7344 76.4652 70.0792 78.86 65.5417 80.0364V96.5478Z" fill="white"/>
    </g>
</svg>
